<?xml version="1.0" standalone="no"?>
<!DOCTYPE svg PUBLIC "-//W3C//DTD SVG 20010904//EN"
 "http://www.w3.org/TR/2001/REC-SVG-20010904/DTD/svg10.dtd">
<svg version="1.0" xmlns="http://www.w3.org/2000/svg"
 width="512.000000pt" height="512.000000pt" viewBox="0 0 512.000000 512.000000"
 preserveAspectRatio="xMidYMid meet">
<metadata>
Created by potrace 1.11, written by Peter Selinger 2001-2013
</metadata>
<g transform="translate(0.000000,512.000000) scale(0.100000,-0.100000)"
fill="#000000" stroke="none">
<path d="M2925 4237 c-81 -37 -140 -158 -189 -389 -43 -205 -72 -271 -163
-374 -38 -43 -134 -160 -213 -259 -80 -99 -183 -219 -230 -266 -72 -74 -93
-89 -139 -103 -69 -20 -97 -38 -117 -77 -14 -28 -16 -108 -15 -772 2 -807 0
-773 59 -816 17 -12 60 -25 103 -32 41 -6 196 -51 344 -99 484 -159 570 -174
950 -175 242 0 289 3 345 18 96 28 174 73 234 137 85 93 126 203 126 341 0 64
3 79 21 95 77 69 128 249 108 378 -10 61 -9 65 20 112 58 94 77 239 46 357
l-15 58 34 49 c80 116 106 271 67 397 -28 93 -90 178 -171 231 -104 70 -120
72 -502 72 l-339 0 7 23 c4 12 33 74 64 137 101 201 130 345 110 529 -14 130
-31 183 -79 259 -47 72 -118 124 -211 153 -85 26 -215 34 -255 16z"/>
<path d="M872 2820 c-18 -11 -41 -34 -52 -52 -20 -32 -20 -48 -18 -778 3 -727
3 -746 23 -772 11 -15 37 -36 57 -48 36 -20 47 -21 387 -18 335 3 351 4 377
24 15 11 37 33 48 48 21 27 21 36 21 775 0 703 -1 748 -18 774 -10 16 -32 37
-50 47 -30 19 -53 20 -387 20 -337 0 -357 -1 -388 -20z m456 -1156 c27 -32 32
-45 32 -91 0 -46 -4 -58 -33 -89 -74 -81 -209 -50 -237 56 -38 140 142 234
238 124z"/>
<path d="M4485 628 l-40 -43 43 40 c23 21 42 40 42 42 0 8 -9 0 -45 -39z"/>
<path d="M4400 570 c-19 -11 -31 -19 -27 -20 11 0 67 29 67 35 0 7 -1 7 -40
-15z"/>
<path d="M4328 543 c6 -2 18 -2 25 0 6 3 1 5 -13 5 -14 0 -19 -2 -12 -5z"/>
<path d="M1683 533 c482 -2 1272 -2 1755 0 482 1 87 2 -878 2 -965 0 -1360 -1
-877 -2z"/>
</g>
</svg>
